<svg width="100" height="100" viewBox="0 0 100 100" fill="none" xmlns="http://www.w3.org/2000/svg">
<path d="M49.9987 65.4137C58.5122 65.4137 65.4137 58.5122 65.4137 49.9987C65.4137 41.4852 58.5122 34.5837 49.9987 34.5837C41.4852 34.5837 34.5837 41.4852 34.5837 49.9987C34.5837 58.5122 41.4852 65.4137 49.9987 65.4137Z" fill="white"/>
<path fill-rule="evenodd" clip-rule="evenodd" d="M9.28346 16.5628C5 23.0365 5 32.0243 5 50C5 67.9757 5 76.9635 9.28346 83.4372C11.1962 86.3281 13.6719 88.8038 16.5628 90.7165C23.0365 95 32.0243 95 50 95C67.9757 95 76.9635 95 83.4372 90.7165C86.3281 88.8038 88.8038 86.3281 90.7165 83.4372C95 76.9635 95 67.9757 95 50C95 32.0243 95 23.0365 90.7165 16.5628C88.8038 13.6719 86.3281 11.1962 83.4372 9.28346C76.9635 5 67.9757 5 50 5C32.0243 5 23.0365 5 16.5628 9.28346C13.6719 11.1962 11.1962 13.6719 9.28346 16.5628ZM79.6897 25.5315C79.6897 28.5548 77.2388 31.0056 74.2156 31.0056C71.1923 31.0056 68.7415 28.5548 68.7415 25.5315C68.7415 22.5082 71.1923 20.0574 74.2156 20.0574C77.2388 20.0574 79.6897 22.5082 79.6897 25.5315ZM73.2958 49.9987C73.2958 62.8653 62.8653 73.2957 49.9987 73.2957C37.1321 73.2957 26.7017 62.8653 26.7017 49.9987C26.7017 37.1321 37.1321 26.7017 49.9987 26.7017C62.8653 26.7017 73.2958 37.1321 73.2958 49.9987Z" fill="white"/>
</svg>
